<svg width="30" height="30" viewBox="0 0 30 30" fill="none" xmlns="http://www.w3.org/2000/svg">
<rect width="30" height="30" rx="15" fill="#DFDFDF"/>
<path d="M19.7425 21.5217C19.7425 21.5217 21.0203 21.3272 21.6365 19.572C22.4143 17.3595 21.8031 15.4781 21.1668 14.3798C20.5304 13.2814 20.2425 13.0344 20.3233 12.4879C20.7728 9.45562 19.2627 8.24166 18.7728 8.05247C18.4092 7.91057 17.7122 7.98415 16.9345 9.20337C16.1567 10.4226 16.0153 11.4999 16.0153 11.4999C16.0153 11.4999 15.7627 11.3002 15.1011 11.2739C14.4395 11.2477 14.1314 11.4106 14.1314 11.4106C14.1264 11.4106 12.8132 8.02093 11.2476 8.40982C9.68193 8.79871 9.53041 11.9992 9.54556 12.7559C9.56072 13.5127 9.24759 13.4969 8.62132 14.7897C7.8587 16.3663 7.84354 18.0795 8.33849 19.4143C8.9395 21.0382 10.2375 21.5847 10.2375 21.5847C11.2476 21.9894 12.3789 21.9947 15.1617 21.9947C17.9446 21.9947 19.7425 21.5164 19.7425 21.5164V21.5217Z" fill="white"/>
</svg>
