<svg width="current" height="current" viewBox="0 0 17 13" fill="current" xmlns="http://www.w3.org/2000/svg">
<path d="M1 4C1 3.44772 1.44772 3 2 3H5V10H2C1.44772 10 1 9.55228 1 9V4Z" stroke="black"/>
<path d="M5 2.83333L9.70778 1.39484C10.3504 1.19848 11 1.67921 11 2.3512V10.6488C11 11.3208 10.3504 11.8015 9.70778 11.6052L5 10.1667" stroke="black" stroke-linecap="round"/>
<path d="M5 2.83333L9.70778 1.39484C10.3504 1.19848 11 1.67921 11 2.3512V10.6488C11 11.3208 10.3504 11.8015 9.70778 11.6052L5 10.1667" stroke="black" stroke-linecap="round"/>
<path d="M14 6.5H16" stroke="black" stroke-linecap="round"/>
<path d="M14 3L15.7321 2" stroke="black" stroke-linecap="round"/>
<path d="M14 10L15.7321 11" stroke="black" stroke-linecap="round"/>
</svg>
