<svg width="62" height="20" viewBox="0 0 62 20" fill="none" xmlns="http://www.w3.org/2000/svg">
<rect width="62" height="20" rx="10" fill="#222222"/>
<path d="M12.4629 15H14.2207V11.9883H15.5625L17.1855 15H19.1309L17.3262 11.7012C18.293 11.2852 18.8262 10.4414 18.8262 9.28125C18.8262 7.59961 17.7188 6.51562 15.791 6.51562H12.4629V15ZM14.2207 10.5586V7.95703H15.4629C16.5059 7.96289 17.0156 8.42578 17.0098 9.28125C17.0156 10.1309 16.5059 10.5586 15.4629 10.5586H14.2207ZM20.0449 15H25.752V13.5469H21.8027V11.4844H25.4473V10.0312H21.8027V7.96875H25.7402V6.51562H20.0449V15ZM28.5293 15L29.168 13.043H32.2383L32.877 15H34.7637L31.834 6.51562H29.5723L26.6309 15H28.5293ZM29.6133 11.6719L30.6738 8.42578H30.7324L31.793 11.6719H29.6133ZM38.7129 15C41.3027 15 42.8672 13.4004 42.8613 10.7461C42.8672 8.10352 41.3027 6.51562 38.748 6.51562H35.7246V15H38.7129ZM37.4824 13.4883V8.02734H38.6543C40.2598 8.02734 41.1035 8.85938 41.1035 10.7461C41.1035 12.6504 40.2598 13.4883 38.6426 13.4883H37.4824ZM43.1074 6.51562L46.2012 11.9766V15H47.959V11.9766L51.0527 6.51562H49.0723L47.127 10.1719H47.0449L45.0879 6.51562H43.1074Z" fill="white"/>
</svg>
