<svg width="18" height="18" viewBox="0 0 18 18" fill="none" xmlns="http://www.w3.org/2000/svg">
<path d="M14 0.5H4C2.067 0.5 0.5 2.067 0.5 4V14C0.5 15.933 2.067 17.5 4 17.5H14C15.933 17.5 17.5 15.933 17.5 14V4C17.5 2.067 15.933 0.5 14 0.5Z" stroke="#D9D9D9"/>
<path d="M9.0375 4.38745H6.5C5.39543 4.38745 4.5 5.28288 4.5 6.38745V11.8749C4.5 12.9795 5.39543 13.875 6.5 13.875H11.575C12.6796 13.875 13.575 12.9795 13.575 11.875V8.92495" stroke="#767676" stroke-linecap="round"/>
<path d="M7.79998 8.5125L7.38748 10.575L9.44998 10.1625L14.4 5.2125L12.75 3.5625L7.79998 8.5125Z" stroke="#767676" stroke-linecap="round" stroke-linejoin="round"/>
</svg>
