<svg width="256" height="44" viewBox="0 0 256 44" fill="none" xmlns="http://www.w3.org/2000/svg">
<path d="M175.664 9.95914H175.543C174.885 9.95914 174.351 10.5357 174.351 11.2451V32.6015C174.351 33.3108 174.885 33.8874 175.543 33.8874H179.395C180.053 33.8874 180.587 33.3108 180.587 32.6015V29.4229H189.8V42.7559H163.825V33.8874H163.946C164.604 33.8874 165.138 33.3108 165.138 32.6015V11.2451C165.138 10.5357 164.604 9.95914 163.946 9.95914H163.825V1.09058H175.667V9.95914H175.664Z" fill="white" stroke="#222222" stroke-linecap="round" stroke-linejoin="round"/>
<path d="M201.349 13.9196V33.9418C201.349 34.464 201.741 34.8866 202.224 34.8866H202.55V43.0096H191.707V34.8866H192.033C192.516 34.8866 192.909 34.464 192.909 33.9418V13.9196C192.909 13.3974 192.516 12.9748 192.033 12.9748H191.707V4.85181H202.55V12.9748H202.224C201.741 12.9748 201.349 13.3974 201.349 13.9196Z" fill="white" stroke="#222222" stroke-linecap="round" stroke-linejoin="round"/>
<path d="M254.192 12.9748V34.8866H255.393V43.0096H245.752L239.437 26.658V43.0096H229.796V34.8866H230.997V12.9748H229.796V4.85181H238.981L245.752 22.2931V4.85181H255.393V12.9748H254.192Z" fill="white" stroke="#222222" stroke-linecap="round" stroke-linejoin="round"/>
<path d="M216.206 4.35376C206.951 4.35376 204.911 9.86869 204.911 13.2978V34.0656C204.911 37.4886 206.562 43.0096 216.206 43.0096C225.85 43.0096 227.499 37.4886 227.499 34.0656V13.2978C227.499 9.87171 225.853 4.35376 216.206 4.35376ZM219.083 32.6227C219.083 34.295 217.827 35.6473 216.279 35.6473H216.128C214.579 35.6473 213.323 34.292 213.323 32.6227V16.3284C213.323 14.6561 214.579 13.3038 216.128 13.3038H216.279C217.827 13.3038 219.083 14.6592 219.083 16.3284V32.6227Z" fill="white" stroke="#222222" stroke-linecap="round" stroke-linejoin="round"/>
<path d="M46.2997 1V9.8897H45.1768C44.712 9.8897 44.3135 10.2429 44.2199 10.7319L40.0815 32.6105C39.9577 33.2625 39.7947 33.8723 40.4135 33.8723H41.0384V42.762H25.7402L23.5819 31.3668L21.4237 42.762H6.12554V33.8723H6.75038C7.36617 33.8723 7.21222 33.2625 7.08846 32.6105L2.95 10.7319C2.85642 10.2429 2.45797 9.8897 1.99311 9.8897H1V1H13.2433V9.8897C12.6366 9.8897 12.1778 10.4783 12.2834 11.1243L15.5676 31.3668L18.8518 11.1213C18.9575 10.4783 18.4956 9.88668 17.8919 9.88668H16.7298V1H30.6122V9.8897H29.4501C28.8433 9.8897 28.3845 10.4783 28.4901 11.1243L31.7744 31.3668L35.0586 11.1213C35.1642 10.4783 34.7024 9.88668 34.0987 9.88668V1H46.3027H46.2997Z" fill="white" stroke="#222222" stroke-linecap="round" stroke-linejoin="round"/>
<path d="M63.6324 16.9471V13.7776C63.6324 13.2645 63.246 12.8479 62.7721 12.8479H58.7725C58.2955 12.8479 57.9122 13.2645 57.9122 13.7776V19.7876H63.6354V27.9287H57.9122V33.9387C57.9122 34.4518 58.2986 34.8684 58.7725 34.8684H62.7721C63.249 34.8684 63.6324 34.4518 63.6324 33.9387V30.7692H72.0904V43.0065H48.2467V34.8654H48.5908C49.0678 34.8654 49.4511 34.4488 49.4511 33.9356V13.832C49.4511 13.3188 49.0647 12.9022 48.5908 12.9022H48.2467V4.76416H72.0904V17.0015L63.6324 16.9471Z" fill="white" stroke="#222222" stroke-linecap="round" stroke-linejoin="round"/>
<path d="M119.57 12.9748H119.458C118.854 12.9748 118.365 13.503 118.365 14.152V33.7094C118.365 34.3584 118.854 34.8866 119.458 34.8866H122.984C123.587 34.8866 124.076 34.3584 124.076 33.7094V30.7995H132.513V43.0096H108.727V34.8866H108.838C109.442 34.8866 109.931 34.3584 109.931 33.7094V14.152C109.931 13.503 109.442 12.9748 108.838 12.9748H108.727V4.85181H119.57V12.9748Z" fill="white" stroke="#222222" stroke-linecap="round" stroke-linejoin="round"/>
<path d="M146.172 12.9748H146.06C145.457 12.9748 144.968 13.503 144.968 14.152V33.7094C144.968 34.3584 145.457 34.8866 146.06 34.8866H149.586C150.19 34.8866 150.679 34.3584 150.679 33.7094V30.7995H159.116V43.0096H135.329V34.8866H135.441C136.045 34.8866 136.534 34.3584 136.534 33.7094V14.152C136.534 13.503 136.045 12.9748 135.441 12.9748H135.329V4.85181H146.172V12.9748Z" fill="white" stroke="#222222" stroke-linecap="round" stroke-linejoin="round"/>
<path d="M105.756 33.8874V42.7559H92.9125V33.8874H93.0543C93.9267 33.8874 94.5908 33.0361 94.4399 32.1094L94.1199 30.1383H88.4359L88.1159 32.1094C87.965 33.0391 88.6291 33.8874 89.5015 33.8874H89.6433V42.7559H76.7993V33.8874H77.4664C78.1335 33.8874 78.7101 33.3802 78.8459 32.6739L82.7972 11.7824C82.9753 10.8406 82.8123 9.96216 81.9218 9.96216H81.3272V1.09058H101.235V9.95914H101.141C100.251 9.95914 99.5835 10.8406 99.7616 11.7793L103.713 32.6709C103.846 33.3772 104.422 33.8843 105.092 33.8843H105.76L105.756 33.8874ZM93.1811 24.4815L91.2492 12.4585L89.3173 24.4815H93.1781H93.1811Z" fill="white" stroke="#222222" stroke-linecap="round" stroke-linejoin="round"/>
</svg>
