<svg width="263" height="44" viewBox="0 0 263 44" fill="none" xmlns="http://www.w3.org/2000/svg">
<g clip-path="url(#clip0_351_944)">
<path d="M180.455 9.55158H180.33C179.651 9.55158 179.1 10.1462 179.1 10.8778V32.9042C179.1 33.6359 179.651 34.2305 180.33 34.2305H184.303C184.981 34.2305 185.532 33.6359 185.532 32.9042V29.626H195.034V43.3773H168.244V34.2305H168.369C169.048 34.2305 169.599 33.6359 169.599 32.9042V10.8778C169.599 10.1462 169.048 9.55158 168.369 9.55158H168.244V0.404785H180.458V9.55158H180.455Z" fill="#FF8217" stroke="black" stroke-linecap="round" stroke-linejoin="round"/>
<path d="M206.945 13.6362V34.2865C206.945 34.8251 207.35 35.261 207.848 35.261H208.185V43.6388H197.002V35.261H197.338C197.836 35.261 198.241 34.8251 198.241 34.2865V13.6362C198.241 13.0976 197.836 12.6618 197.338 12.6618H197.002V4.28394H208.185V12.6618H207.848C207.35 12.6618 206.945 13.0976 206.945 13.6362Z" fill="#FF8217" stroke="black" stroke-linecap="round" stroke-linejoin="round"/>
<path d="M261.447 12.6618V35.261H262.686V43.6388H252.742L246.229 26.7742V43.6388H236.285V35.261H237.524V12.6618H236.285V4.28394H245.759L252.742 22.2724V4.28394H262.686V12.6618H261.447Z" fill="#FF8217" stroke="black" stroke-linecap="round" stroke-linejoin="round"/>
<path d="M222.269 3.77026C212.724 3.77026 210.619 9.45821 210.619 12.9949V34.4142C210.619 37.9447 212.322 43.6388 222.269 43.6388C232.216 43.6388 233.916 37.9447 233.916 34.4142V12.9949C233.916 9.46133 232.219 3.77026 222.269 3.77026ZM225.236 32.9261C225.236 34.6508 223.941 36.0456 222.344 36.0456H222.188C220.591 36.0456 219.296 34.6477 219.296 32.9261V16.1206C219.296 14.3959 220.591 13.0011 222.188 13.0011H222.344C223.941 13.0011 225.236 14.399 225.236 16.1206V32.9261Z" fill="#FF8217" stroke="black" stroke-linecap="round" stroke-linejoin="round"/>
<path d="M47.0322 0.311279V9.47987H45.874C45.3946 9.47987 44.9836 9.84412 44.8871 10.3485L40.6188 32.9135C40.4912 33.5859 40.3231 34.2148 40.9613 34.2148H41.6057V43.3834H25.8277L23.6017 31.6308L21.3757 43.3834H5.59762V34.2148H6.24206C6.87717 34.2148 6.7184 33.5859 6.59075 32.9135L2.32245 10.3485C2.22594 9.84412 1.81499 9.47987 1.33555 9.47987H0.311279V0.311279H12.9387V9.47987C12.3129 9.47987 11.8397 10.087 11.9487 10.7532L15.3359 31.6308L18.7232 10.7501C18.8321 10.087 18.3558 9.47676 17.7332 9.47676H16.5345V0.311279H30.8525V9.47987H29.6539C29.0281 9.47987 28.5549 10.087 28.6639 10.7532L32.0511 31.6308L35.4383 10.7501C35.5473 10.087 35.071 9.47676 34.4483 9.47676V0.311279H47.0353H47.0322Z" fill="#FF8217" stroke="black" stroke-linecap="round" stroke-linejoin="round"/>
<path d="M64.9086 16.7588V13.4898C64.9086 12.9606 64.5101 12.5309 64.0214 12.5309H59.8963C59.4044 12.5309 59.009 12.9606 59.009 13.4898V19.6884H64.9117V28.0849H59.009V34.2834C59.009 34.8126 59.4075 35.2423 59.8963 35.2423H64.0214C64.5133 35.2423 64.9086 34.8126 64.9086 34.2834V31.0145H73.632V43.6357H49.0403V35.2392H49.3952C49.8871 35.2392 50.2825 34.8095 50.2825 34.2803V13.5459C50.2825 13.0166 49.884 12.587 49.3952 12.587H49.0403V4.1936H73.632V16.8148L64.9086 16.7588Z" fill="#FF8217" stroke="black" stroke-linecap="round" stroke-linejoin="round"/>
<path d="M122.601 12.6618H122.486C121.863 12.6618 121.359 13.2066 121.359 13.8759V34.0468C121.359 34.7162 121.863 35.261 122.486 35.261H126.122C126.744 35.261 127.249 34.7162 127.249 34.0468V31.0456H135.95V43.6388H111.418V35.261H111.533C112.156 35.261 112.66 34.7162 112.66 34.0468V13.8759C112.66 13.2066 112.156 12.6618 111.533 12.6618H111.418V4.28394H122.601V12.6618Z" fill="#FF8217" stroke="black" stroke-linecap="round" stroke-linejoin="round"/>
<path d="M150.038 12.6618H149.923C149.3 12.6618 148.796 13.2066 148.796 13.8759V34.0468C148.796 34.7162 149.3 35.261 149.923 35.261H153.559C154.182 35.261 154.686 34.7162 154.686 34.0468V31.0456H163.388V43.6388H138.855V35.261H138.97C139.593 35.261 140.097 34.7162 140.097 34.0468V13.8759C140.097 13.2066 139.593 12.6618 138.97 12.6618H138.855V4.28394H150.038V12.6618Z" fill="#FF8217" stroke="black" stroke-linecap="round" stroke-linejoin="round"/>
<path d="M108.354 34.2305V43.3773H95.1074V34.2305H95.2537C96.1535 34.2305 96.8384 33.3526 96.6827 32.3968L96.3527 30.3638H90.4904L90.1604 32.3968C90.0048 33.3557 90.6897 34.2305 91.5894 34.2305H91.7357V43.3773H78.4888V34.2305H79.1768C79.8648 34.2305 80.4595 33.7075 80.5996 32.979L84.6748 11.432C84.8585 10.4607 84.6904 9.5547 83.772 9.5547H83.1587V0.404785H103.691V9.55158H103.594C102.676 9.55158 101.988 10.4607 102.171 11.4289L106.247 32.9758C106.384 33.7044 106.978 34.2274 107.669 34.2274H108.358L108.354 34.2305ZM95.3845 24.5295L93.392 12.1294L91.3995 24.5295H95.3814H95.3845Z" fill="#FF8217" stroke="black" stroke-linecap="round" stroke-linejoin="round"/>
</g>
<defs>
<clipPath id="clip0_351_944">
<rect width="263" height="43.9501" fill="white"/>
</clipPath>
</defs>
</svg>
